# xmcd
#
# Track frame offsets:
#	150
#	18106
#	35280
#	49526
#	65532
#	80844
#	96954
#	110156
#	127516
#	147205
#	174481
#	192752
#
# Disc length: 2850 seconds
#
# Revision: 0
# Processed by: cddbd v1.5.2PL0 Copyright (c) Steve Scherf et al.
# Submitted via: dBpowerAMP V4.0
#
DISCID=970b200c
DTITLE=Vonda Shepard - Live
DYEAR=2018
DGENRE=Pop
TTITLE0=From the sun
TTITLE1=I know better
TTITLE2=Downtown, Dirtytown
TTITLE3=Another January
TTITLE4=Need your love
TTITLE5=I just don't get it
TTITLE6=Walk on the water
TTITLE7=By 7:30
TTITLE8=Searchin' my soul
TTITLE9=The wildest times of the world
TTITLE10=Roll in the dirt
TTITLE11=Baby, don't you break my heart slow
EXTD=
EXTT0=
EXTT1=
EXTT2=
EXTT3=
EXTT4=
EXTT5=
EXTT6=
EXTT7=
EXTT8=
EXTT9=
EXTT10=
EXTT11=
PLAYORDER=
